<svg width="457" height="319" viewBox="0 0 457 319" fill="none" xmlns="http://www.w3.org/2000/svg">
<g clip-path="url(#clip0_11_50)">
<path d="M120.897 31.05L132.601 42.1055L127.23 49.6859L115.272 37.5562C114.753 37.5209 114.231 37.4107 113.72 37.2159C110.941 36.1563 109.546 33.0401 110.603 30.2555C111.66 27.4709 114.77 26.0725 117.549 27.132C119.322 27.8077 120.527 29.3208 120.897 31.05V31.05Z" fill="#FFB6B6"/>
<path d="M82.534 309.184L90.9771 309.183L94.9936 276.551L82.5322 276.552L82.534 309.184Z" fill="#FFB6B6"/>
<path d="M82.2367 318.01L108.201 318.009V317.68C108.2 312.087 103.676 307.554 98.0948 307.554H98.0942L93.3515 303.948L84.5028 307.554L82.2363 307.554L82.2368 318.01H82.2367H82.2367Z" fill="#2F2E41"/>
<path d="M102.214 300.25L110.127 303.199L125.246 274.017L113.566 269.665L102.214 300.25Z" fill="#FFB6B6"/>
<path d="M98.8645 308.418L123.2 317.487L123.314 317.179C125.26 311.937 122.596 306.108 117.366 304.158L117.365 304.158L114.174 299.122L104.626 299.41L102.502 298.619L98.8645 308.418L98.8645 308.418Z" fill="#2F2E41"/>
<path d="M118.204 140.266L135.339 237.919L119.275 298.55L104.282 292.647L106.424 287.818L103.211 281.38L108.03 249.187L108.038 228.612L94.6432 187.483L90.8949 255.089L96.7851 288.892L95.6762 298.55L78.0434 300.696L80.1853 293.721L68.9403 259.918L71.0822 253.479L56.0889 174.606L59.8372 149.388L118.204 140.266Z" fill="#2F2E41"/>
<path d="M67.6018 43.9549H88.9492L95.4466 54.686L102.408 53.0763L105.935 54.686L121.685 57.9053L116.866 86.3426L115.795 119.072L116.33 133.023C121.96 137.145 120.507 142.825 119.258 149.16C119.258 149.16 65.4599 163.902 56.8923 159.194V153.11L61.9793 112.365L43.2376 66.2219C42.4153 59.9047 49.0758 58.1981 55.2858 56.8322L61.7116 54.686L67.6018 43.9549V43.9549Z" fill="#3B9B39"/>
<path d="M116.866 61.6612L121.685 57.9053L132.65 61.6612L128.646 55.2225V52.1194L122.22 50.3935L121.685 45.5646L116.866 41.777L124.758 32.6514L130.52 37.5184L134.001 37.5163L138.791 42.3157L155.963 65.8085C159.613 70.8032 158.563 77.957 153.431 81.4042C151.457 82.7299 149.086 83.6599 146.317 83.6599H115.953L116.866 61.6612H116.866L116.866 61.6612Z" fill="#3B9B39"/>
<path d="M80.2951 40.5984C89.1556 40.5984 96.3384 33.4011 96.3384 24.5228C96.3384 15.6444 89.1556 8.44714 80.2951 8.44714C71.4346 8.44714 64.2517 15.6444 64.2517 24.5228C64.2517 33.4011 71.4346 40.5984 80.2951 40.5984Z" fill="#FFB6B6"/>
<path d="M49.456 168.326L49.0753 152.214L58.2308 150.712L58.0283 167.761C58.3678 168.155 58.6566 168.605 58.8775 169.106C60.0791 171.831 58.8484 175.016 56.1286 176.22C53.4089 177.424 50.23 176.191 49.0284 173.466C48.2621 171.728 48.4885 169.805 49.456 168.326V168.326Z" fill="#FFB6B6"/>
<path d="M49.1858 61.073C45.5739 60.8655 42.6536 63.9815 43.0872 67.5805L34.3253 116.499L32.9319 119.439L34.5299 121.092L34.8659 124.883L48.2064 160.187L64.8771 160.805L58.6667 86.9476L54.3495 65.0022C53.586 62.7621 51.5444 61.2086 49.1858 61.0731V61.073H49.1858Z" fill="#3B9B39"/>
<path d="M66.1028 160.323C66.263 171.923 61.2835 174.401 53.2513 171.974C46.456 169.921 40.3999 167.435 40.3999 160.323C40.3999 153.211 44.5307 142.694 53.2513 146.22C61.054 141.927 70.017 152.099 66.1028 160.323Z" fill="#FF6584"/>
<path d="M52.7887 146.509C51.7633 144.638 51.6928 142.353 52.6455 140.438C53.4942 138.733 55.1746 137.463 57.0269 137.063C58.035 136.846 58.4658 138.397 57.454 138.615C56.015 138.926 55.1727 144.858 54.4826 146.168C53.7402 147.578 53.4168 144.312 54.1758 145.696C54.6739 146.605 53.2872 147.418 52.7887 146.509H52.7887Z" fill="#3F3D56"/>
<path d="M130.36 20.2828C130.36 27.3947 125.541 34.3608 117.509 31.9336C110.713 29.8802 102.053 30.7314 108.786 18.7387C99.8092 14.2414 108.788 2.65314 117.509 6.17906C125.311 1.88663 130.36 13.1708 130.36 20.2828Z" fill="#FF6584"/>
<path d="M117.046 6.46813C113.92 7.20096 115.527 7.51638 116.903 3.39616C117.506 1.58863 119.432 0.420346 121.284 0.0208299C122.292 -0.196591 122.723 1.35477 121.711 1.57299C120.272 1.88337 119.036 2.78869 118.346 4.09924C117.603 5.50914 117.674 4.27131 118.433 5.65571C118.931 6.56414 117.544 7.37725 117.046 6.46813H117.046Z" fill="#3F3D56"/>
<path d="M40.588 306.008C39.0426 306.105 38.1885 304.181 39.3577 303.06L39.474 302.597C39.4587 302.559 39.4433 302.522 39.4278 302.485C37.865 298.751 32.5683 298.777 31.0188 302.517C29.6434 305.836 27.8924 309.161 27.4612 312.67C27.268 314.219 27.3549 315.797 27.698 317.318C24.4753 310.264 22.7795 302.561 22.7795 294.816C22.7795 292.869 22.8858 290.923 23.1032 288.982C23.282 287.394 23.5284 285.816 23.8473 284.252C25.5721 275.799 29.3069 267.748 34.694 261.024C37.2837 259.605 39.4434 257.388 40.7479 254.73C41.2165 253.772 41.5837 252.74 41.7577 251.69C41.463 251.729 40.6464 247.231 40.8687 246.955C40.458 246.331 39.7229 246.02 39.2743 245.411C37.0434 242.38 33.9698 242.909 32.3652 247.028C28.9375 248.761 28.9043 251.636 31.0075 254.401C32.3456 256.16 32.5295 258.54 33.7035 260.423C33.5827 260.578 33.4571 260.728 33.3363 260.883C31.1213 263.73 29.2056 266.79 27.5906 270.004C28.047 266.432 27.3731 262.128 26.2243 259.354C24.9166 256.192 22.4655 253.53 20.307 250.797C17.7142 247.515 12.3976 248.947 11.9408 253.109C11.9364 253.149 11.9321 253.189 11.9279 253.229C12.2485 253.411 12.5626 253.603 12.8694 253.806C14.6195 254.966 14.0146 257.684 11.941 258.005L11.8941 258.012C12.0101 259.17 12.2081 260.317 12.498 261.445C9.72891 272.175 15.7072 276.084 24.2434 276.259C24.4318 276.356 24.6155 276.453 24.8039 276.545C23.939 278.985 23.2481 281.488 22.736 284.024C22.277 286.266 21.9581 288.532 21.7794 290.807C21.5571 293.678 21.5764 296.563 21.818 299.429L21.8035 299.328C21.1899 296.171 19.4796 293.223 16.9961 291.18C13.2966 288.135 8.06987 287.013 4.07873 284.566C2.1575 283.387 -0.304398 284.91 0.030905 287.142L0.0472273 287.249C0.641496 287.491 1.22126 287.772 1.78172 288.086C2.10234 288.267 2.41642 288.46 2.72324 288.663C4.47328 289.823 3.86847 292.541 1.79487 292.862L1.74787 292.869C1.71406 292.874 1.68506 292.879 1.65129 292.884C2.67074 295.309 4.09117 297.561 5.86917 299.502C7.60061 308.869 15.0372 309.758 22.9921 307.03H22.9969C23.8666 310.826 25.1373 314.534 26.7703 318.068H40.2502C40.2986 317.918 40.342 317.763 40.3855 317.613C39.139 317.69 37.8828 317.618 36.6556 317.39C37.6557 316.161 38.6558 314.921 39.656 313.691C39.6801 313.667 39.6995 313.643 39.7188 313.619C40.2261 312.99 40.7382 312.365 41.2455 311.736L41.2458 311.735C41.2775 309.803 41.0464 307.877 40.5884 306.008L40.588 306.008V306.008V306.008Z" fill="#F2F2F2"/>
<path d="M191.357 318.108C191.357 318.603 190.961 319 190.467 319H0.995152C0.501466 319 0.10498 318.603 0.10498 318.108C0.10498 317.613 0.501466 317.216 0.995152 317.216H190.467C190.961 317.216 191.357 317.613 191.357 318.108Z" fill="#CCCCCC"/>
<path d="M380.7 29.826C380.7 28.9992 380.029 28.3269 379.204 28.3269H356.014C355.189 28.3269 354.518 28.9992 354.518 29.826C354.518 30.6528 355.189 31.3251 356.014 31.3251H379.204C380.029 31.3251 380.7 30.6528 380.7 29.826Z" fill="#F2F2F2"/>
<path d="M418.85 29.9819C418.85 29.1551 418.179 28.4828 417.354 28.4828H394.164C393.339 28.4828 392.668 29.1551 392.668 29.9819C392.668 30.8087 393.339 31.481 394.164 31.481H417.354C418.179 31.481 418.85 30.8087 418.85 29.9819Z" fill="#F2F2F2"/>
<path d="M457 30.1378C457 29.3111 456.329 28.6387 455.504 28.6387H432.314C431.489 28.6387 430.818 29.3111 430.818 30.1378C430.818 30.9646 431.489 31.6369 432.314 31.6369H455.504C456.329 31.6369 457 30.9646 457 30.1378Z" fill="#F2F2F2"/>
<path d="M418.85 63.7116C418.85 62.8848 418.179 62.2125 417.354 62.2125H394.164C393.339 62.2125 392.668 62.8848 392.668 63.7116C392.668 64.5383 393.339 65.2107 394.164 65.2107H417.354C418.179 65.2107 418.85 64.5383 418.85 63.7116Z" fill="#F2F2F2"/>
<path d="M342.549 63.7116C342.549 62.8848 341.878 62.2125 341.053 62.2125H317.864C317.039 62.2125 316.368 62.8848 316.368 63.7116C316.368 64.5383 317.039 65.2107 317.864 65.2107H341.053C341.878 65.2107 342.549 64.5383 342.549 63.7116Z" fill="#F2F2F2"/>
<path d="M380.7 63.8675C380.7 63.0407 380.029 62.3684 379.204 62.3684H356.014C355.189 62.3684 354.518 63.0407 354.518 63.8675C354.518 64.6943 355.189 65.3666 356.014 65.3666H379.204C380.029 65.3666 380.7 64.6943 380.7 63.8675Z" fill="#F2F2F2"/>
<path d="M418.85 98.1908C418.85 97.364 418.179 96.6917 417.354 96.6917H394.164C393.339 96.6917 392.668 97.364 392.668 98.1908C392.668 99.0176 393.339 99.6899 394.164 99.6899H417.354C418.179 99.6899 418.85 99.0176 418.85 98.1908Z" fill="#F2F2F2"/>
<path d="M457 98.3467C457 97.5199 456.329 96.8476 455.504 96.8476H432.314C431.489 96.8476 430.818 97.5199 430.818 98.3467C430.818 99.1735 431.489 99.8458 432.314 99.8458H455.504C456.329 99.8458 457 99.1735 457 98.3467Z" fill="#F2F2F2"/>
<path d="M304.399 98.0349C304.399 97.2081 303.728 96.5358 302.903 96.5358H279.714C278.889 96.5358 278.218 97.2081 278.218 98.0349C278.218 98.8616 278.889 99.534 279.714 99.534H302.903C303.728 99.534 304.399 98.8616 304.399 98.0349Z" fill="#F2F2F2"/>
<path d="M342.549 98.1908C342.549 97.364 341.878 96.6917 341.053 96.6917H317.864C317.039 96.6917 316.368 97.364 316.368 98.1908C316.368 99.0176 317.039 99.6899 317.864 99.6899H341.053C341.878 99.6899 342.549 99.0176 342.549 98.1908Z" fill="#F2F2F2"/>
<path d="M380.7 98.3467C380.7 97.5199 380.029 96.8476 379.204 96.8476H356.014C355.189 96.8476 354.518 97.5199 354.518 98.3467C354.518 99.1735 355.189 99.8458 356.014 99.8458H379.204C380.029 99.8458 380.7 99.1735 380.7 98.3467Z" fill="#F2F2F2"/>
<path d="M367.799 22.6087C372.948 22.6087 377.122 18.5143 377.122 13.4637C377.122 8.41302 372.948 4.31866 367.799 4.31866C362.65 4.31866 358.476 8.41302 358.476 13.4637C358.476 18.5143 362.65 22.6087 367.799 22.6087Z" fill="#F2F2F2"/>
<path d="M367.112 17.2396L367.091 17.2392C366.843 17.2323 366.614 17.1027 366.481 16.893L363.321 11.9272C363.098 11.5781 363.201 11.1148 363.549 10.8922C363.897 10.6708 364.36 10.7722 364.582 11.1213L367.148 15.1542L371.971 8.43204C372.213 8.0957 372.681 8.01994 373.015 8.26075C373.35 8.50231 373.427 8.97078 373.186 9.30676L367.719 16.9274C367.578 17.1236 367.352 17.2396 367.112 17.2396V17.2396Z" fill="white"/>
<path d="M407.445 22.6087C412.594 22.6087 416.768 18.5143 416.768 13.4637C416.768 8.41302 412.594 4.31866 407.445 4.31866C402.296 4.31866 398.122 8.41302 398.122 13.4637C398.122 18.5143 402.296 22.6087 407.445 22.6087Z" fill="#F2F2F2"/>
<path d="M406.758 17.2396L406.737 17.2392C406.489 17.2323 406.26 17.1027 406.127 16.893L402.967 11.9272C402.745 11.5781 402.847 11.1148 403.195 10.8922C403.543 10.6708 404.006 10.7722 404.228 11.1213L406.795 15.1542L411.617 8.43204C411.859 8.0957 412.327 8.01994 412.661 8.26075C412.997 8.50231 413.073 8.97078 412.832 9.30676L407.365 16.9274C407.225 17.1236 406.998 17.2396 406.758 17.2396V17.2396Z" fill="white"/>
<path d="M444.099 21.8592C449.248 21.8592 453.422 17.7648 453.422 12.7142C453.422 7.66351 449.248 3.56915 444.099 3.56915C438.95 3.56915 434.776 7.66351 434.776 12.7142C434.776 17.7648 438.95 21.8592 444.099 21.8592Z" fill="#F2F2F2"/>
<path d="M443.412 16.4901L443.391 16.4897C443.143 16.4828 442.914 16.3532 442.781 16.1435L439.621 11.1777C439.399 10.8286 439.501 10.3652 439.849 10.1427C440.198 9.92129 440.66 10.0227 440.882 10.3718L443.449 14.4047L448.271 7.68253C448.513 7.34618 448.981 7.27043 449.315 7.51124C449.651 7.7528 449.727 8.22127 449.486 8.55724L444.019 16.1779C443.879 16.3741 443.652 16.4901 443.412 16.4901V16.4901Z" fill="white"/>
<path d="M457 61.6188C457 60.7921 456.329 60.1198 455.504 60.1198H432.314C431.489 60.1198 430.818 60.7921 430.818 61.6188C430.818 62.4456 431.489 63.1179 432.314 63.1179H455.504C456.329 63.1179 457 62.4456 457 61.6188Z" fill="#F2F2F2"/>
<path d="M444.099 53.3402C449.248 53.3402 453.422 49.2458 453.422 44.1952C453.422 39.1445 449.248 35.0502 444.099 35.0502C438.95 35.0502 434.776 39.1445 434.776 44.1952C434.776 49.2458 438.95 53.3402 444.099 53.3402Z" fill="#F2F2F2"/>
<path d="M443.412 47.9711L443.391 47.9707C443.143 47.9638 442.914 47.8342 442.781 47.6245L439.621 42.6588C439.399 42.3096 439.501 41.8463 439.849 41.6237C440.198 41.4023 440.66 41.5037 440.882 41.8528L443.449 45.8857L448.271 39.1635C448.513 38.8272 448.981 38.7514 449.315 38.9923C449.651 39.2338 449.727 39.7023 449.486 40.0383L444.019 47.6589C443.879 47.8551 443.652 47.9711 443.412 47.9711V47.9711Z" fill="white"/>
<path d="M405.949 58.587C411.098 58.587 415.272 54.4926 415.272 49.442C415.272 44.3914 411.098 40.297 405.949 40.297C400.8 40.297 396.626 44.3914 396.626 49.442C396.626 54.4926 400.8 58.587 405.949 58.587Z" fill="#F2F2F2"/>
<path d="M405.262 53.2179L405.241 53.2176C404.993 53.2106 404.764 53.081 404.631 52.8713L401.471 47.9056C401.249 47.5564 401.351 47.0931 401.699 46.8706C402.047 46.6491 402.51 46.7505 402.732 47.0997L405.299 51.1325L410.121 44.4104C410.363 44.074 410.831 43.9983 411.165 44.2391C411.501 44.4806 411.577 44.9491 411.336 45.2851L405.869 52.9057C405.728 53.1019 405.502 53.2179 405.262 53.2179V53.2179Z" fill="white"/>
<path d="M368.546 58.587C373.695 58.587 377.87 54.4926 377.87 49.442C377.87 44.3914 373.695 40.297 368.546 40.297C363.397 40.297 359.223 44.3914 359.223 49.442C359.223 54.4926 363.397 58.587 368.546 58.587Z" fill="#F2F2F2"/>
<path d="M367.859 53.2179L367.838 53.2176C367.59 53.2106 367.362 53.081 367.229 52.8713L364.068 47.9056C363.846 47.5564 363.949 47.0931 364.297 46.8706C364.645 46.6491 365.107 46.7505 365.33 47.0997L367.896 51.1325L372.719 44.4104C372.96 44.074 373.428 43.9983 373.763 44.2391C374.098 44.4806 374.175 44.9491 373.934 45.2851L368.467 52.9057C368.326 53.1019 368.1 53.2179 367.859 53.2179V53.2179Z" fill="white"/>
<path d="M329.648 58.587C334.797 58.587 338.971 54.4926 338.971 49.442C338.971 44.3914 334.797 40.297 329.648 40.297C324.499 40.297 320.325 44.3914 320.325 49.442C320.325 54.4926 324.499 58.587 329.648 58.587Z" fill="#F2F2F2"/>
<path d="M328.961 53.2179L328.94 53.2176C328.692 53.2106 328.464 53.081 328.33 52.8713L325.17 47.9056C324.948 47.5564 325.05 47.0931 325.399 46.8706C325.747 46.6491 326.209 46.7505 326.432 47.0997L328.998 51.1325L333.82 44.4104C334.062 44.074 334.53 43.9983 334.864 44.2391C335.2 44.4806 335.276 44.9491 335.035 45.2851L329.569 52.9057C329.428 53.1019 329.201 53.2179 328.961 53.2179V53.2179Z" fill="white"/>
<path d="M325.07 63.5062C325.07 61.7519 323.646 60.3253 321.895 60.3253H272.69C270.939 60.3253 269.515 61.7519 269.515 63.5062C269.515 65.2605 270.939 66.6871 272.69 66.6871H321.895C323.646 66.6871 325.07 65.2605 325.07 63.5062Z" fill="#3F3D56"/>
<path d="M297.695 52.3014C308.621 52.3014 317.478 43.6136 317.478 32.8967C317.478 22.1797 308.621 13.4919 297.695 13.4919C286.77 13.4919 277.913 22.1797 277.913 32.8967C277.913 43.6136 286.77 52.3014 297.695 52.3014Z" fill="#3B9B39"/>
<path d="M296.237 40.9088C296.222 40.9088 296.208 40.9088 296.193 40.908C295.667 40.8933 295.181 40.6184 294.899 40.1734L288.193 29.6365C287.722 28.8957 287.939 27.9125 288.678 27.4403C289.417 26.9705 290.398 27.1856 290.87 27.9265L296.315 36.4838L306.548 22.22C307.061 21.5064 308.054 21.3456 308.763 21.8566C309.475 22.3691 309.637 23.3632 309.126 24.0761L297.526 40.2464C297.228 40.6626 296.747 40.9088 296.237 40.9088V40.9088Z" fill="white"/>
<path d="M93.6949 11.6367C94.6674 12.1164 95.58 12.716 96.4028 13.4056C96.6422 13.608 94.3756 13.8779 94.6001 14.0877C92.9918 16.6812 99.6943 19.9267 96.8442 20.0841C96.2757 18.8698 87.5011 16.029 86.5511 15.0921C86.6858 16.1714 90.239 17.5132 90.1118 18.585C86.9176 18.3826 79.7963 17.1834 75.899 15.5868C78.247 20.2754 78.2647 23.9605 72.9068 25.3309H72.9068C68.8968 25.3309 66.0971 29.3116 67.4459 33.0956L68.4185 35.8246L64.6783 32.0769C63.1228 30.5182 60.1102 26.8309 59.1187 22.8941C58.4066 20.0668 58.9867 17.1043 60.4688 14.5949C60.5236 14.5022 60.5732 14.4127 60.6164 14.3276C59.7712 14.7173 58.8885 15.0172 57.9833 15.2195C57.9459 13.5855 64.2743 10.5574 64.6783 9.59043C66.5559 5.08564 63.8181 5.09315 71.4107 5.09315C72.0652 4.65591 73.3801 5.40285 75.1509 5.09315C78.4097 4.52319 79.7569 2.29485 83.8029 3.14688C87.2945 3.88215 90.6921 4.96064 93.3273 6.06083L94.6001 6.59224C95.3706 7.82897 95.6847 8.9833 95.6399 10.0326C95.5725 10.0177 95.4977 10.0027 95.4304 9.99517C94.1064 9.80779 94.9965 11.3519 93.6949 11.6367L93.6949 11.6367Z" fill="#2F2E41"/>
</g>
<defs>
<clipPath id="clip0_11_50">
<rect width="457" height="319" fill="white"/>
</clipPath>
</defs>
</svg>
