<svg width="382" height="309" viewBox="0 0 382 309" fill="none" xmlns="http://www.w3.org/2000/svg">
<g clip-path="url(#clip0_9_2)">
<path d="M114.439 304.071L121.676 304.07L125.119 276.157L114.438 276.157L114.439 304.071Z" fill="#FFB6B6"/>
<path d="M139.235 303.907C139.46 304.286 139.579 305.511 139.579 305.952C139.579 307.309 138.479 308.409 137.123 308.409H114.71C113.784 308.409 113.034 307.658 113.034 306.733V305.8C113.034 305.8 111.925 302.996 114.208 299.539C114.208 299.539 117.045 302.246 121.284 298.006L122.534 295.742L131.584 302.36L136.6 302.977C137.697 303.112 138.67 302.956 139.235 303.907H139.235H139.235Z" fill="#2F2E41"/>
<path d="M154.298 304.071L161.535 304.07L164.978 276.157L154.296 276.157L154.298 304.071Z" fill="#FFB6B6"/>
<path d="M179.094 303.907C179.319 304.286 179.438 305.511 179.438 305.952C179.438 307.309 178.338 308.409 176.981 308.409H154.568C153.643 308.409 152.893 307.658 152.893 306.733V305.8C152.893 305.8 151.784 302.996 154.067 299.539C154.067 299.539 156.904 302.246 161.143 298.006L162.393 295.742L171.443 302.36L176.459 302.977C177.556 303.112 178.529 302.956 179.094 303.907H179.094H179.094Z" fill="#2F2E41"/>
<path d="M151.39 81.8693C151.39 81.8693 159.726 78.0735 165.048 81.8693C170.371 85.6651 175.116 119.827 169.422 125.521C163.728 131.215 154.237 118.404 154.237 118.404L151.39 81.8693Z" fill="#FFB6B6"/>
<path d="M119.887 82.3214C119.887 82.3214 111.551 78.5256 106.229 82.3214C100.906 86.1172 96.1612 120.279 101.855 125.973C107.549 131.667 117.04 118.856 117.04 118.856L119.887 82.3214Z" fill="#FFB6B6"/>
<path d="M120.124 124.312C120.124 124.312 117.277 137.123 113.955 142.817L138.155 157.051L157.136 144.715C157.136 144.715 148.12 130.006 149.544 125.736L120.124 124.312Z" fill="#FFB6B6"/>
<path d="M285.004 302.648L275.71 302.647L271.288 266.801L285.006 266.802L285.004 302.648Z" fill="#FFB6B6"/>
<path d="M253.161 302.438C252.871 302.925 252.719 304.498 252.719 305.065C252.719 306.807 254.131 308.219 255.873 308.219H284.656C285.845 308.219 286.808 307.255 286.808 306.067V304.869C286.808 304.869 288.232 301.267 285.3 296.829C285.3 296.829 281.657 300.304 276.213 294.86L274.607 291.952L262.986 300.451L256.545 301.244C255.135 301.417 253.886 301.217 253.161 302.438H253.161Z" fill="#2F2E41"/>
<path d="M313.733 302.648L304.439 302.647L300.017 266.801L313.735 266.802L313.733 302.648Z" fill="#FFB6B6"/>
<path d="M281.89 302.438C281.6 302.925 281.448 304.498 281.448 305.065C281.448 306.807 282.86 308.219 284.602 308.219H313.385C314.574 308.219 315.537 307.255 315.537 306.067V304.869C315.537 304.869 316.961 301.267 314.029 296.829C314.029 296.829 310.386 300.304 304.942 294.86L303.336 291.952L291.715 300.451L285.274 301.244C283.864 301.417 282.615 301.217 281.89 302.438H281.89Z" fill="#2F2E41"/>
<path d="M265.668 95.8599C265.668 95.8599 264.322 104.524 265.881 110.114L242.989 150.704L251.894 157.194L281.632 119.781L285.753 101.296L265.668 95.8599Z" fill="#FFB6B6"/>
<path d="M250.528 163.098C253.682 157.504 253.439 151.39 249.983 149.442C246.528 147.494 241.17 150.449 238.015 156.042C234.861 161.636 235.104 167.75 238.56 169.698C242.015 171.646 247.373 168.691 250.528 163.098Z" fill="#FFB6B6"/>
<path d="M274.598 137.156C274.598 137.156 263.654 144.879 267.416 156.407L264.338 195.294L271.178 275.319H285.912L288.279 217.866L297.855 181.615L299.097 275.319L317.35 274.977C317.35 274.977 318.376 228.125 317.008 225.389C315.64 222.653 317.008 224.848 317.008 224.848L328.294 169.979L326.584 132.369L274.598 137.156Z" fill="#2F2E41"/>
<path d="M301.617 41.742L281.781 49.2657L283.833 54.7375L267.416 67.049L278.36 105.352L272.204 139.55L289.989 138.866L328.294 135.447L324.19 93.7241L324.874 53.3695L309.826 47.8977L301.617 41.742Z" fill="#3B9B39"/>
<path d="M272.546 66.0231L267.416 67.049C267.416 67.049 265.022 68.759 265.022 74.9147C265.022 81.0705 265.022 85.1744 265.706 88.5942C265.706 88.5942 261.602 99.5378 262.97 102.274C264.338 105.01 281.439 105.01 281.439 105.01L272.546 66.0231V66.0231Z" fill="#3B9B39"/>
<path d="M300.815 25.8705C300.815 34.4814 293.834 41.4619 285.222 41.4619C276.611 41.4619 269.63 34.4814 269.63 25.8705C269.63 17.2596 276.611 10.2791 285.222 10.2791C293.834 10.2791 300.815 17.2596 300.815 25.8705Z" fill="#FFB6B6"/>
<path d="M294.966 36.7272C294.966 36.7272 297.729 26.1157 294.785 27.9868L290.217 27.5528L293.101 19.838C293.101 19.838 287.938 15.9676 285.879 18.23C283.821 20.4925 284.314 21.7684 282.443 18.8253C280.571 15.8821 276.661 15.9377 273.08 18.0555C269.499 20.1733 266.7 20.5219 267.381 16.5922C268.061 12.6625 267.68 5.98502 269.806 6.7423C271.932 7.49958 271.349 7.92701 272.496 5.18282C273.642 2.43863 273.787 0.916075 276.441 2.09004C279.095 3.264 285.764 -2.24749 288.52 1.08699C291.276 4.42147 293.684 4.95747 296.091 5.49348C298.498 6.02948 308.17 4.49043 307.361 19.4694C307.361 19.4694 313.817 32.3732 302.188 38.3353C302.188 38.3353 299.033 35.221 296.829 39.0061L294.966 36.7272H294.966Z" fill="#2F2E41"/>
<path d="M145.273 70.2222L130.089 70.6967L122.022 80.6607L113.006 82.5586C113.006 82.5586 110.159 109.129 114.43 118.619C118.7 128.108 116.802 130.955 116.802 130.955L150.967 130.481C150.967 130.481 150.018 124.036 155.712 118.48L158.568 107.914C160.095 102.264 159.574 96.2565 157.099 90.9533L150.967 77.8138L145.748 75.9159L145.273 70.2222V70.2222Z" fill="#2F2E41"/>
<path d="M116.802 136.649L114.667 140.207C114.667 140.207 108.024 149.222 107.075 174.844C106.126 200.466 113.955 283.373 113.955 283.373H124.791L136.504 171.203L152.153 283.499L166.151 283.736L164.965 169.15C164.965 169.15 162.118 143.054 154.526 137.36C154.526 137.36 130.089 159.423 116.802 136.649Z" fill="#2F2E41"/>
<path d="M97.0408 80.4392C97.0408 85.3651 96.7441 89.0303 91.3647 89.3583C86.3121 89.6663 85.6885 85.3651 85.6885 80.4392C85.6885 75.5134 85.8061 71.5601 91.3647 71.5202C97.6931 71.4748 97.0408 75.5134 97.0408 80.4392Z" fill="#3B9B39"/>
<path d="M128.665 80.4391C128.665 85.3649 129.96 89.0302 122.989 89.3581C117.627 89.6104 117.313 85.3649 117.313 80.4391C117.313 75.5132 118.101 72.0728 122.989 71.52C127.587 71.0001 128.665 75.5132 128.665 80.4391Z" fill="#3B9B39"/>
<path d="M123.8 76.385H92.1755V83.6824H123.8V76.385Z" fill="#3B9B39"/>
<path d="M151.609 79.0158C151.609 83.9416 151.313 87.6068 145.933 87.9348C140.881 88.2429 140.257 83.9416 140.257 79.0158C140.257 74.0899 140.375 70.1366 145.933 70.0967C152.262 70.0513 151.609 74.0899 151.609 79.0158Z" fill="#3B9B39"/>
<path d="M183.234 79.0156C183.234 83.9415 184.528 87.6067 177.558 87.9347C172.195 88.187 171.882 83.9415 171.882 79.0156C171.882 74.0898 172.669 70.6493 177.558 70.0966C182.156 69.5767 183.234 74.0898 183.234 79.0156Z" fill="#3B9B39"/>
<path d="M178.369 74.9615H146.744V82.2589H178.369V74.9615Z" fill="#3B9B39"/>
<path d="M234.174 156.83C234.174 161.755 233.878 165.421 228.498 165.749C223.446 166.057 222.822 161.755 222.822 156.83C222.822 151.904 222.94 147.95 228.498 147.911C234.827 147.865 234.174 151.904 234.174 156.83Z" fill="#3B9B39"/>
<path d="M265.799 156.829C265.799 161.755 267.093 165.421 260.123 165.749C254.76 166.001 254.447 161.755 254.447 156.829C254.447 151.904 255.234 148.463 260.123 147.91C264.721 147.391 265.799 151.904 265.799 156.829Z" fill="#3B9B39"/>
<path d="M260.934 152.775H229.309V160.073H260.934V152.775Z" fill="#3B9B39"/>
<path d="M162.799 90.2231C166.204 90.2231 168.964 85.7545 168.964 80.2423C168.964 74.73 166.204 70.2614 162.799 70.2614C159.394 70.2614 156.634 74.73 156.634 80.2423C156.634 85.7545 159.394 90.2231 162.799 90.2231Z" fill="#FFB6B6"/>
<path d="M133.648 64.5285C142.951 64.5285 150.493 56.9873 150.493 47.6847C150.493 38.3821 142.951 30.8409 133.648 30.8409C124.344 30.8409 116.802 38.3821 116.802 47.6847C116.802 56.9873 124.344 64.5285 133.648 64.5285Z" fill="#FFB6B6"/>
<path d="M130.265 52.9774L134.163 46.7754L135.918 38.3408C135.918 38.3408 153.673 42.671 148.91 34.0107C144.146 25.3504 132.021 23.1853 123.793 29.6805L120.247 33.1446C120.247 33.1446 128.123 25.7834 123.36 23.1853C118.596 20.5872 119.462 18.8551 116.864 21.0202C114.266 23.1853 115.565 24.9173 112.534 23.6183C109.502 22.3193 103.006 20.5872 103.873 22.7523C104.739 24.9174 98.2055 30.5465 100.606 33.1446C103.006 35.7427 100.841 40.9389 105.172 39.6399C109.502 38.3408 107.337 44.836 111.234 42.2379C111.234 42.2379 108.035 46.3143 110.634 49.3454C113.232 52.3765 117.235 53.5558 116.802 57.8859C116.369 62.216 126.767 63.1051 126.767 63.1051L125.958 50.4652C125.958 50.4652 128.533 48.354 130.265 52.9774Z" fill="#2F2E41"/>
<path d="M301.766 82.042C301.766 82.042 299.282 90.4507 300.086 96.1985L272.012 133.393L279.977 141.007L314.415 107.869L320.952 90.0944L301.766 82.042V82.042Z" fill="#FFB6B6"/>
<path d="M277.839 146.677C281.708 141.552 282.278 135.459 279.111 133.07C275.945 130.681 270.242 132.899 266.374 138.025C262.505 143.15 261.935 149.242 265.101 151.632C268.267 154.021 273.97 151.803 277.839 146.677Z" fill="#FFB6B6"/>
<path d="M322.111 51.1225C322.111 51.1225 330.857 54.2952 329.744 60.3109C328.632 66.3265 328.209 70.2923 328.209 70.2923C328.209 70.2923 329.157 73.5783 327.921 75.2161C326.685 76.8539 320.338 96.0577 320.338 96.0577L297.51 88.2566C297.51 88.2566 310.893 51.2254 322.111 51.1225Z" fill="#3B9B39"/>
<path d="M114.643 80.6943C114.643 86.2066 111.883 90.6751 108.478 90.6751C105.073 90.6751 102.313 86.2066 102.313 80.6943C102.313 75.1821 105.073 70.7135 108.478 70.7135C111.883 70.7135 114.643 75.1821 114.643 80.6943Z" fill="#FFB6B6"/>
</g>
<defs>
<clipPath id="clip0_9_2">
<rect width="382" height="309" fill="white"/>
</clipPath>
</defs>
</svg>
